# xmcd CD database file
#
# Track frame offsets:
#        150
#        16997
#        29400
#        46487
#        61546
#
# Disc length: 1151 seconds
#
# Revision: 0
# Processed by: cddbd v1.5.2PL0 Copyright (c) Steve Scherf et al.
# Submitted via: CUERipper 2.1.6
#
DISCID=34047d05
DTITLE=Kasey-Michelle - Young and Reckless EP
DYEAR=2016
DGENRE=Country
TTITLE0=Acting Crazy
TTITLE1=Boots
TTITLE2=Memories
TTITLE3=Young and Reckless
TTITLE4=Loving You
EXTD=
EXTT0=
EXTT1=
EXTT2=
EXTT3=
EXTT4=
PLAYORDER=
